<svg width="18" height="18" viewBox="0 0 18 18" fill="none" xmlns="http://www.w3.org/2000/svg">
<path d="M8.55748 14.1896L8.81903 14.3505L12.969 16.9047L12.9692 16.9048C13.3291 17.1264 13.8165 16.8119 13.7096 16.3431L8.55748 14.1896ZM8.55748 14.1896L8.29564 14.3501L4.14564 16.894L4.14475 16.8946C3.78483 17.1163 3.29739 16.8017 3.40434 16.3329C3.40435 16.3329 3.40436 16.3329 3.40436 16.3328C3.40437 16.3328 3.40438 16.3328 3.40439 16.3327L4.50434 11.5299L4.57074 11.24L4.34764 11.0433L0.677636 7.80732L0.677461 7.80716C0.325238 7.49689 0.534712 6.93414 0.957298 6.89994L0.957299 6.89995L0.959987 6.89971L5.78999 6.4825L6.09172 6.45644L6.20838 6.17694L8.09838 1.64867L8.09918 1.64674C8.26904 1.23494 8.84487 1.23494 9.01474 1.64674L9.01538 1.6483L10.9054 6.18675L11.0219 6.46659L11.3239 6.49268L16.1539 6.9099L16.1566 6.91011C16.5792 6.94432 16.7887 7.50707 16.4365 7.81734L16.4363 7.81749L12.7663 11.0534L12.5432 11.2501L12.6096 11.5401L13.7095 16.3429L8.55748 14.1896Z" stroke="#35C5F0"/>
</svg>
